<svg version="1.1" id="Layer_1" xmlns="http://www.w3.org/2000/svg" xmlns:xlink="http://www.w3.org/1999/xlink" x="0px" y="0px"
	 width="100%" viewBox="0 0 177 177" enable-background="new 0 0 177 177" xml:space="preserve" opacity="0.4">
<path fill="#501D4F" opacity="1.000000" stroke="none" 
	d="
M178.000000,77.000000 
	C178.000000,77.444443 178.000000,77.888893 177.686905,78.770615 
	C177.582535,80.138603 177.791275,81.069298 178.000000,82.000000 
	C178.000000,88.021156 178.000000,94.042305 177.644409,100.693001 
	C176.138290,106.326897 175.259949,111.412575 173.793060,116.322418 
	C164.230698,148.328537 133.154892,174.098053 101.062622,176.529297 
	C110.275703,167.116089 119.457870,158.069519 128.513184,148.897720 
	C129.944244,147.448257 130.802460,145.433212 132.149994,143.443268 
	C141.579865,137.593246 142.557556,135.584320 140.122437,126.542191 
	C138.320557,125.776863 136.735413,125.310417 134.992188,124.548935 
	C132.216309,122.491432 129.598511,120.728966 127.077087,118.656967 
	C127.830330,116.999176 128.487213,115.650925 129.399002,114.041122 
	C131.170837,109.856384 132.687759,105.933205 134.427643,101.775452 
	C133.735199,99.466156 132.819809,97.391418 132.055695,94.998672 
	C137.471451,88.826584 142.735886,82.972504 148.327957,77.037170 
	C149.710281,75.606934 150.764984,74.257957 151.908539,72.571426 
	C153.447037,68.168129 151.515686,66.421997 147.697113,66.046951 
	C143.796860,65.663879 139.890259,65.345383 135.946640,64.642746 
	C136.065567,63.291916 136.224304,62.296967 136.394577,61.229710 
	C134.800308,61.229710 133.689255,61.229710 132.664597,60.800514 
	C135.599136,45.720955 129.400116,34.586040 118.707230,24.906635 
	C106.367256,19.222954 93.604713,19.604975 80.831970,19.886391 
	C75.251404,20.009342 70.882286,21.991835 67.838562,27.167252 
	C52.809132,41.916111 38.101036,56.536858 23.359358,71.123657 
	C16.286901,78.121819 9.150925,85.055771 2.011989,91.567673 
	C1.937722,88.705460 1.895183,86.294365 1.902175,83.492172 
	C1.634470,81.734055 1.317236,80.367027 1.000001,79.000000 
	C1.000000,77.933327 1.000000,76.866661 1.384820,75.430534 
	C2.187072,73.855675 2.713572,72.676094 3.005989,71.441086 
	C10.418244,40.135857 28.738565,18.208055 58.951862,6.653335 
	C64.829002,4.405690 70.976959,2.866156 77.000000,1.000000 
	C77.444443,1.000000 77.888893,1.000000 78.771088,1.313371 
	C80.139221,1.417829 81.069611,1.208914 82.000000,1.000000 
	C88.021156,1.000000 94.042305,1.000000 100.681747,1.361908 
	C114.592575,3.658054 127.022377,8.073853 138.159256,15.562507 
	C155.632217,27.311661 167.844315,43.159199 174.013504,63.444809 
	C175.383789,67.950600 176.673309,72.480949 178.000000,77.000000 
z"/>
<path fill="#411942" opacity="1.000000" stroke="none" 
	d="
M131.925537,143.679657 
	C130.802460,145.433212 129.944244,147.448257 128.513184,148.897720 
	C119.457870,158.069519 110.275703,167.116089 100.807022,176.633224 
	C100.319099,177.374985 100.159554,177.687485 100.000000,178.000000 
	C100.000000,178.000000 99.500000,178.000000 99.102600,177.625549 
	C96.841743,177.210876 94.978294,177.170654 92.674515,177.091736 
	C90.461845,177.077240 88.689491,177.101440 86.496048,177.092987 
	C84.049965,177.373550 82.024979,177.686768 80.000000,178.000000 
	C78.933327,178.000000 77.866661,178.000000 76.355057,177.618866 
	C74.834213,176.879654 73.780678,176.419189 72.679131,176.178421 
	C40.538647,169.153290 18.361832,150.413025 6.533160,119.678299 
	C4.319891,113.927505 2.825915,107.899872 1.000000,102.000000 
	C1.000000,101.555557 1.000000,101.111107 1.322407,100.227905 
	C1.429876,98.859436 1.214938,97.929718 1.000000,97.000000 
	C1.000000,95.933327 1.000000,94.866661 1.232195,93.310188 
	C1.722592,92.600243 1.915700,92.333046 2.043715,92.018799 
	C9.150925,85.055771 16.286901,78.121819 23.359358,71.123657 
	C38.101036,56.536858 52.809132,41.916111 67.837479,27.590862 
	C68.087242,29.282358 68.030563,30.692305 67.711525,32.301170 
	C59.241222,38.276512 52.957855,45.568287 48.213737,55.690945 
	C52.632107,55.690945 55.667618,55.690945 59.128124,55.690945 
	C57.233421,59.859890 55.611366,63.428928 53.728897,67.236443 
	C52.581429,70.062965 51.694374,72.651016 50.807320,75.239059 
	C51.197517,75.393456 51.587715,75.547844 51.977917,75.702232 
	C56.017712,72.825356 60.057510,69.948486 64.071014,67.047142 
	C64.044716,67.022675 63.997860,67.077126 64.303444,67.064919 
	C65.328796,66.689087 66.048553,66.325462 67.218941,65.931953 
	C68.568398,65.889671 69.467239,65.877274 70.336685,66.240646 
	C72.322502,69.984352 69.056274,69.838020 67.508095,70.628685 
	C65.325104,71.743553 63.001724,72.583542 60.738369,73.541054 
	C60.766182,74.105888 60.793999,74.670723 60.821812,75.235558 
	C63.943714,76.545799 67.004272,78.036858 70.202560,79.121964 
	C74.508949,80.583031 78.921501,81.731201 83.282547,83.396324 
	C82.816315,85.499512 82.356041,87.220039 81.584793,89.085526 
	C79.891281,90.040039 78.508736,90.849594 76.711296,91.602585 
	C73.244469,91.241684 69.790207,90.080605 68.885040,94.931183 
	C68.251884,94.616554 67.879913,94.274582 67.422440,93.552048 
	C65.993973,92.190453 64.680931,91.164490 63.297894,90.243637 
	C62.320908,89.593140 60.841949,89.345688 60.283176,88.472748 
	C55.237743,80.590401 55.282829,80.561539 48.793449,87.149307 
	C46.975613,87.002380 45.481400,86.910713 43.976059,86.524658 
	C43.350391,83.427666 42.895836,80.463280 38.843300,81.129623 
	C38.857426,81.107689 38.907486,81.101364 38.972363,80.765518 
	C38.584164,78.042442 38.131092,75.655205 37.443115,72.030243 
	C34.911587,74.772507 33.476677,76.326874 31.765411,78.040932 
	C30.659164,79.133446 29.829269,80.066269 28.787766,81.242020 
	C27.430805,81.875900 26.285452,82.266861 25.841984,82.418236 
	C25.841984,84.285843 25.841984,85.648598 25.541578,87.003708 
	C24.380077,86.996078 23.518984,86.996078 21.275280,86.996078 
	C25.718105,91.573524 29.315424,95.279839 32.762657,99.213516 
	C33.754337,99.951195 34.896095,100.461502 36.326080,101.034073 
	C37.323158,101.428398 38.032013,101.760475 38.728642,102.460503 
	C38.534245,104.524055 38.352066,106.219673 38.102718,108.326790 
	C37.934563,112.076614 39.374084,113.630463 42.873978,113.301559 
	C44.011509,113.194664 45.646400,113.498260 46.325901,114.261841 
	C48.978916,117.243172 52.196323,117.725273 55.837563,117.421303 
	C55.487946,118.402901 55.130089,119.084206 54.396088,119.750351 
	C48.443703,121.651520 42.468807,123.047997 40.405197,130.086288 
	C36.543613,133.546890 37.870171,136.533798 41.527130,137.928177 
	C45.097717,139.289612 49.163433,139.352509 53.449806,140.044495 
	C59.346550,138.977448 64.759262,137.411362 70.275421,136.834610 
	C77.475693,136.081757 84.757889,136.112396 92.028778,136.196198 
	C92.379143,138.050064 92.705574,139.513641 93.108810,141.314514 
	C96.254219,143.429413 99.121552,145.963348 102.428993,146.843567 
	C112.551682,149.537491 122.386795,147.515427 131.925537,143.679657 
z"/>
<path fill="#FDFDFD" opacity="1.000000" stroke="none" 
	d="
M76.531342,1.000000 
	C70.976959,2.866156 64.829002,4.405690 58.951862,6.653335 
	C28.738565,18.208055 10.418244,40.135857 3.005989,71.441086 
	C2.713572,72.676094 2.187072,73.855675 1.384820,75.030540 
	C1.000000,50.405487 1.000000,25.810978 1.000000,1.000000 
	C26.020479,1.000000 51.041580,1.000000 76.531342,1.000000 
z"/>
<path fill="#FDFDFD" opacity="1.000000" stroke="none" 
	d="
M1.000000,102.468658 
	C2.825915,107.899872 4.319891,113.927505 6.533160,119.678299 
	C18.361832,150.413025 40.538647,169.153290 72.679131,176.178421 
	C73.780678,176.419189 74.834213,176.879654 75.955063,177.618866 
	C51.072639,178.000000 26.145277,178.000000 1.000000,178.000000 
	C1.000000,152.979523 1.000000,127.958420 1.000000,102.468658 
z"/>
<path fill="#FDFDFD" opacity="1.000000" stroke="none" 
	d="
M100.468658,178.000000 
	C100.159554,177.687485 100.319099,177.374985 100.734253,176.958527 
	C133.154892,174.098053 164.230698,148.328537 173.793060,116.322418 
	C175.259949,111.412575 176.138290,106.326897 177.644409,101.161270 
	C178.000000,126.594017 178.000000,152.188034 178.000000,178.000000 
	C152.312851,178.000000 126.625084,178.000000 100.468658,178.000000 
z"/>
<path fill="#FDFDFD" opacity="1.000000" stroke="none" 
	d="
M178.000000,76.531342 
	C176.673309,72.480949 175.383789,67.950600 174.013504,63.444809 
	C167.844315,43.159199 155.632217,27.311661 138.159256,15.562507 
	C127.022377,8.073853 114.592575,3.658054 101.150024,1.361908 
	C126.593063,1.000000 152.186127,1.000000 178.000000,1.000000 
	C178.000000,26.020462 178.000000,51.041573 178.000000,76.531342 
z"/>
<path fill="#7B5E7A" opacity="1.000000" stroke="none" 
	d="
M2.011987,91.567673 
	C1.915700,92.333046 1.722592,92.600243 1.232195,92.910194 
	C1.000000,90.299988 1.000000,87.599968 1.212183,84.413651 
	C1.424367,83.927345 1.852645,83.883270 1.852645,83.883270 
	C1.895183,86.294365 1.937722,88.705460 2.011987,91.567673 
z"/>
<path fill="#80657F" opacity="1.000000" stroke="none" 
	d="
M80.437500,178.000000 
	C82.024979,177.686768 84.049965,177.373550 86.522858,177.310730 
	C86.970764,177.561142 87.000000,178.000000 87.000000,178.000000 
	C84.958336,178.000000 82.916664,178.000000 80.437500,178.000000 
z"/>
<path fill="#664365" opacity="1.000000" stroke="none" 
	d="
M87.428467,178.000000 
	C87.000000,178.000000 86.970764,177.561142 86.943954,177.343384 
	C88.689491,177.101440 90.461845,177.077240 92.638947,177.308105 
	C93.043694,177.563156 93.000000,178.000000 93.000000,178.000000 
	C91.285645,178.000000 89.571281,178.000000 87.428467,178.000000 
z"/>
<path fill="#907B8F" opacity="1.000000" stroke="none" 
	d="
M93.428467,178.000000 
	C93.000000,178.000000 93.043694,177.563156 93.079269,177.346802 
	C94.978294,177.170654 96.841743,177.210876 98.852600,177.625549 
	C97.285645,178.000000 95.571281,178.000000 93.428467,178.000000 
z"/>
<path fill="#AC9DAB" opacity="1.000000" stroke="none" 
	d="
M1.902175,83.492172 
	C1.852645,83.883270 1.424367,83.927345 1.212183,83.963669 
	C1.000000,82.611107 1.000000,81.222221 1.000001,79.416664 
	C1.317236,80.367027 1.634470,81.734055 1.902175,83.492172 
z"/>
<path fill="#B3A6B3" opacity="1.000000" stroke="none" 
	d="
M1.000000,97.375000 
	C1.214938,97.929718 1.429876,98.859436 1.322407,99.894577 
	C1.000000,99.250000 1.000000,98.500000 1.000000,97.375000 
z"/>
<path fill="#B3A6B3" opacity="1.000000" stroke="none" 
	d="
M178.000000,81.625000 
	C177.791275,81.069298 177.582535,80.138603 177.686905,79.103951 
	C178.000000,79.750000 178.000000,80.500000 178.000000,81.625000 
z"/>
<path fill="#B3A6B3" opacity="1.000000" stroke="none" 
	d="
M81.625000,1.000000 
	C81.069611,1.208914 80.139221,1.417829 79.104416,1.313371 
	C79.750000,1.000000 80.500000,1.000000 81.625000,1.000000 
z"/>
<path fill="#FC4546" opacity="1.000000" stroke="none" 
	d="
M67.973885,32.102253 
	C68.030563,30.692305 68.087242,29.282358 68.145004,27.448799 
	C70.882286,21.991835 75.251404,20.009342 80.831970,19.886391 
	C93.604713,19.604975 106.367256,19.222954 118.505890,25.172390 
	C116.140900,28.958200 113.053505,32.036835 111.326080,35.748421 
	C109.565208,39.531895 109.141617,43.937763 107.780823,48.102573 
	C106.287079,49.433895 105.145020,50.733776 103.739929,52.206993 
	C102.347885,53.626564 101.218887,54.872799 99.838043,55.839668 
	C97.052734,46.637768 94.519257,37.715225 91.973625,28.749874 
	C91.363922,29.336433 90.667946,30.005991 89.698227,30.811892 
	C89.254761,31.293800 89.085037,31.639364 88.949638,31.981861 
	C88.983971,31.978792 88.940971,31.924904 88.604874,32.013824 
	C86.668549,34.738754 85.068306,37.374767 83.807037,39.452404 
	C78.331528,36.910534 73.152710,34.506393 67.973885,32.102253 
z"/>
<path fill="#AF1147" opacity="1.000000" stroke="none" 
	d="
M108.132523,48.071129 
	C109.141617,43.937763 109.565208,39.531895 111.326080,35.748421 
	C113.053505,32.036835 116.140900,28.958200 118.832794,25.336029 
	C129.400116,34.586040 135.599136,45.720955 132.427399,60.987282 
	C129.674622,63.310776 127.245415,65.018311 124.831833,66.788422 
	C124.847443,66.850990 124.975029,66.829605 124.673965,66.559250 
	C123.812119,66.833504 123.251350,67.378120 122.551353,67.857071 
	C122.412132,67.791420 122.104362,67.784286 121.846497,67.560745 
	C116.759628,64.900826 111.930634,62.464447 107.105484,59.604446 
	C107.450394,55.477596 107.791458,51.774364 108.132523,48.071129 
z"/>
<path fill="#FAA49C" opacity="1.000000" stroke="none" 
	d="
M134.204681,102.010017 
	C132.687759,105.933205 131.170837,109.856384 129.053452,114.123413 
	C126.154243,114.935478 123.855476,115.403702 121.368896,115.593475 
	C120.457794,114.806442 119.734505,114.297844 119.019363,113.601593 
	C119.027504,113.413925 119.036880,113.038368 119.290787,112.791153 
	C121.927910,109.138008 121.236786,106.321289 117.582039,103.850830 
	C114.305008,103.534866 111.355026,103.377968 108.405045,103.221069 
	C108.308434,102.530296 108.211815,101.839523 108.115204,101.148758 
	C110.407028,100.240562 112.930740,98.218422 114.946175,98.637970 
	C120.470688,99.788002 124.115372,97.051872 128.102463,94.060959 
	C128.600143,94.122017 128.847229,94.248871 128.935791,94.807312 
	C127.715004,97.323524 126.612663,99.486153 125.510330,101.648788 
	C128.246964,101.789253 130.983521,101.931145 133.720413,102.066559 
	C133.880508,102.074478 134.043198,102.030067 134.204681,102.010017 
M125.108078,108.146126 
	C124.406441,107.295807 123.704803,106.445488 123.003159,105.595177 
	C122.698051,106.084373 122.392944,106.573578 122.087837,107.062782 
	C123.190826,107.599800 124.293808,108.136826 125.108078,108.146126 
z"/>
<path fill="#431A43" opacity="1.000000" stroke="none" 
	d="
M129.054245,94.453735 
	C128.847229,94.248871 128.600143,94.122017 128.075165,93.686211 
	C129.933884,89.856079 131.839371,86.276093 134.180115,83.007812 
	C136.572922,79.666801 136.806595,77.093155 132.825058,74.952751 
	C132.161118,74.595825 131.753464,73.762108 131.463989,73.054855 
	C131.822739,72.655998 131.944870,72.350998 132.296143,71.879501 
	C132.802612,71.459198 133.079910,71.205391 133.617477,71.159988 
	C138.585281,73.285072 143.292801,75.201752 148.000336,77.118423 
	C142.735886,82.972504 137.471451,88.826584 131.695282,94.895630 
	C130.473785,94.891647 129.764008,94.672691 129.054245,94.453735 
z"/>
<path fill="#D28BDE" opacity="1.000000" stroke="none" 
	d="
M132.149994,143.443268 
	C122.386795,147.515427 112.551682,149.537491 102.428993,146.843567 
	C99.121552,145.963348 96.254219,143.429413 93.479691,141.372131 
	C104.246811,145.912064 115.008064,145.674271 125.772797,142.507767 
	C135.972092,139.507599 139.863022,135.072571 140.339203,126.841080 
	C142.557556,135.584320 141.579865,137.593246 132.149994,143.443268 
z"/>
<path fill="#F8E0EF" opacity="1.000000" stroke="none" 
	d="
M140.122437,126.542191 
	C139.863022,135.072571 135.972092,139.507599 125.772797,142.507767 
	C115.008064,145.674271 104.246811,145.912064 93.402893,141.034851 
	C92.705574,139.513641 92.379143,138.050064 92.231461,135.938324 
	C93.315567,134.064011 94.220932,132.837845 95.172348,132.039688 
	C95.973030,134.705215 96.727669,136.942734 97.740005,139.469116 
	C104.627541,140.440079 111.380966,142.209564 117.849724,141.474350 
	C123.439781,140.839020 128.975220,137.829666 134.017242,134.960327 
	C137.151886,133.176453 138.397491,129.588608 135.111160,125.844963 
	C135.073608,125.290497 135.111938,125.067238 135.150284,124.843979 
	C136.735413,125.310417 138.320557,125.776863 140.122437,126.542191 
z"/>
<path fill="#0660C9" opacity="1.000000" stroke="none" 
	d="
M135.986435,64.998619 
	C139.890259,65.345383 143.796860,65.663879 147.697113,66.046951 
	C151.515686,66.421997 153.447037,68.168129 151.549438,72.429092 
	C145.474701,71.401985 139.847900,70.179634 134.270950,68.650024 
	C134.876022,67.228050 135.431229,66.113335 135.986435,64.998619 
z"/>
<path fill="#FA4547" opacity="1.000000" stroke="none" 
	d="
M134.992188,124.548935 
	C135.111938,125.067238 135.073608,125.290497 135.056183,126.220947 
	C134.828339,128.245499 134.579575,129.562851 134.268265,131.211517 
	C132.057510,129.905945 130.431747,128.945847 128.558350,127.758133 
	C126.755447,126.262352 125.200180,124.994164 123.598053,123.555420 
	C123.463615,123.136635 123.291931,122.980286 123.025085,122.948318 
	C123.014038,122.980843 123.080925,122.965218 123.108292,122.644920 
	C122.647621,121.619331 122.159599,120.914047 121.974106,119.945679 
	C123.844673,119.443893 125.412697,119.205200 126.980728,118.966507 
	C129.598511,120.728966 132.216309,122.491432 134.992188,124.548935 
z"/>
<path fill="#F6D5B5" opacity="1.000000" stroke="none" 
	d="
M135.946640,64.642746 
	C135.431229,66.113335 134.876022,67.228050 134.129761,68.885925 
	C133.744888,69.936584 133.551056,70.444084 133.357208,70.951584 
	C133.079910,71.205391 132.802612,71.459198 131.929108,71.811234 
	C129.160690,70.181587 126.988449,68.453720 124.816216,66.725845 
	C127.245415,65.018311 129.674622,63.310776 132.341019,61.416473 
	C133.689255,61.229710 134.800308,61.229710 136.394577,61.229710 
	C136.224304,62.296967 136.065567,63.291916 135.946640,64.642746 
z"/>
<path fill="#0C45A6" opacity="1.000000" stroke="none" 
	d="
M133.617477,71.159988 
	C133.551056,70.444084 133.744888,69.936584 134.079895,69.193192 
	C139.847900,70.179634 145.474701,71.401985 151.460602,72.766655 
	C150.764984,74.257957 149.710281,75.606934 148.327957,77.037170 
	C143.292801,75.201752 138.585281,73.285072 133.617477,71.159988 
z"/>
<path fill="#FAD7B2" opacity="1.000000" stroke="none" 
	d="
M128.935791,94.807312 
	C129.764008,94.672691 130.473785,94.891647 131.543976,95.213646 
	C132.819809,97.391418 133.735199,99.466156 134.427643,101.775452 
	C134.043198,102.030067 133.880508,102.074478 133.720413,102.066559 
	C130.983521,101.931145 128.246964,101.789253 125.510330,101.648788 
	C126.612663,99.486153 127.715004,97.323524 128.935791,94.807312 
z"/>
<path fill="#A9154A" opacity="1.000000" stroke="none" 
	d="
M127.077087,118.656967 
	C125.412697,119.205200 123.844673,119.443893 121.650551,119.941330 
	C120.258156,119.835304 119.491852,119.470543 118.927383,118.810852 
	C119.938385,117.634583 120.747551,116.753250 121.556717,115.871918 
	C123.855476,115.403702 126.154243,114.935478 128.798553,114.384964 
	C128.487213,115.650925 127.830330,116.999176 127.077087,118.656967 
z"/>
<path fill="#51A3E6" opacity="1.000000" stroke="none" 
	d="
M89.971970,30.675552 
	C90.667946,30.005991 91.363922,29.336433 91.973625,28.749874 
	C94.519257,37.715225 97.052734,46.637768 99.689362,56.141006 
	C98.918869,58.242035 98.045212,59.762363 96.959740,61.542305 
	C95.539589,62.947971 94.331245,64.094025 92.942581,65.411118 
	C92.137688,63.459141 91.605667,62.168922 90.999542,60.540504 
	C89.252762,59.484768 87.580101,58.767231 85.510834,58.092060 
	C81.430290,59.060646 77.772957,60.118076 74.054085,60.872002 
	C71.021027,61.486900 69.850204,63.008453 70.626831,65.985748 
	C70.532761,65.963150 70.366074,65.864876 70.366074,65.864876 
	C69.467239,65.877274 68.568398,65.889671 66.913673,66.003822 
	C65.437813,66.429428 64.717834,66.753281 63.997860,67.077133 
	C63.997860,67.077126 64.044716,67.022675 63.673622,67.005035 
	C61.558735,67.441483 59.833523,68.108208 58.063572,68.262840 
	C57.133488,68.344109 56.125111,67.529251 55.431816,66.942207 
	C60.068756,62.156231 64.425972,57.547100 69.428108,52.255760 
	C65.265945,51.279839 62.478508,50.626255 59.609413,49.953526 
	C67.718292,39.815044 76.803078,41.107674 86.517967,47.746204 
	C87.446922,41.680485 88.193947,36.802692 88.940971,31.924904 
	C88.940971,31.924904 88.983971,31.978792 89.215126,31.852512 
	C89.621513,31.376007 89.796745,31.025780 89.971970,30.675552 
z"/>
<path fill="#F8D7B5" opacity="1.000000" stroke="none" 
	d="
M70.336685,66.240646 
	C70.366074,65.864876 70.532761,65.963150 71.067459,65.953613 
	C76.633797,65.312332 81.665421,64.680595 86.804344,64.408440 
	C87.445503,66.499573 87.909622,68.260017 88.600319,69.926559 
	C88.688019,70.138161 89.961670,69.858238 91.065910,69.817520 
	C93.970924,68.878059 96.495911,67.927101 99.276611,67.172653 
	C100.692841,67.578812 101.853363,67.788460 103.015701,68.265533 
	C102.979561,68.885475 102.941597,69.237968 102.843307,69.942261 
	C100.569405,71.889580 98.355835,73.485107 96.164680,75.064484 
	C97.966888,77.280823 99.797035,79.531525 101.191757,81.815147 
	C97.193779,81.918892 93.631241,81.989723 89.761688,82.054016 
	C89.250122,82.055626 89.045563,82.063759 88.475174,82.052757 
	C86.502396,82.360298 84.895439,82.686981 83.288490,83.013664 
	C78.921501,81.731201 74.508949,80.583031 70.202560,79.121964 
	C67.004272,78.036858 63.943714,76.545799 60.821812,75.235558 
	C60.793999,74.670723 60.766182,74.105888 60.738369,73.541054 
	C63.001724,72.583542 65.325104,71.743553 67.508095,70.628685 
	C69.056274,69.838020 72.322502,69.984352 70.336685,66.240646 
z"/>
<path fill="#5EF0F3" opacity="1.000000" stroke="none" 
	d="
M88.604874,32.013824 
	C88.193947,36.802692 87.446922,41.680485 86.517967,47.746204 
	C76.803078,41.107674 67.718292,39.815044 59.609413,49.953526 
	C62.478508,50.626255 65.265945,51.279839 69.428108,52.255760 
	C64.425972,57.547100 60.068756,62.156231 55.141369,66.901840 
	C54.377235,67.024872 54.183273,67.011421 53.989311,66.997963 
	C55.611366,63.428928 57.233421,59.859890 59.128124,55.690945 
	C55.667618,55.690945 52.632107,55.690945 48.213737,55.690945 
	C52.957855,45.568287 59.241222,38.276512 67.711525,32.301170 
	C73.152710,34.506393 78.331528,36.910534 83.807037,39.452404 
	C85.068306,37.374767 86.668549,34.738754 88.604874,32.013824 
z"/>
<path fill="#F7D7B2" opacity="1.000000" stroke="none" 
	d="
M49.117073,87.204567 
	C55.282829,80.561539 55.237743,80.590401 60.283176,88.472748 
	C60.841949,89.345688 62.320908,89.593140 63.297894,90.243637 
	C64.680931,91.164490 65.993973,92.190453 67.063393,93.687180 
	C64.815437,95.005135 62.841003,95.807396 60.019894,96.953674 
	C61.715103,98.333412 63.066200,99.433075 64.337677,100.853745 
	C63.440170,103.125557 62.622276,105.076355 61.637253,107.197746 
	C61.314877,107.811897 61.159634,108.255455 60.756519,108.889374 
	C59.701973,109.731255 58.895290,110.382790 57.649055,111.012230 
	C53.200993,111.629890 50.332695,110.707413 50.607632,106.262794 
	C46.269180,106.839203 42.219536,107.377243 38.169891,107.915283 
	C38.352066,106.219673 38.534245,104.524055 38.885681,102.131325 
	C41.950550,97.888603 44.912239,94.393723 47.697872,90.763725 
	C48.446205,89.788574 48.658638,88.402184 49.117073,87.204567 
M58.916157,95.916855 
	C56.683273,95.155586 56.683273,95.155586 57.012657,99.178596 
	C57.462490,99.049622 58.114182,99.051926 58.253632,98.785812 
	C58.610352,98.105064 58.739029,97.304810 58.916157,95.916855 
M56.100368,91.821571 
	C56.495857,91.924889 56.891350,92.028198 57.286839,92.131516 
	C57.261917,91.884552 57.260143,91.429497 57.208385,91.423744 
	C56.815525,91.380028 56.412872,91.424263 56.100368,91.821571 
M54.519062,99.790329 
	C54.519062,99.790329 54.408352,100.154831 54.408352,100.154831 
	C54.408352,100.154831 54.665665,99.922203 54.519062,99.790329 
M52.494606,103.534431 
	C52.494606,103.534431 52.473812,103.485054 52.494606,103.534431 
z"/>
<path fill="#FBE2F1" opacity="1.000000" stroke="none" 
	d="
M88.841011,82.071892 
	C89.045563,82.063759 89.250122,82.055626 89.860802,82.415695 
	C97.675354,84.001625 104.854706,85.638489 108.884003,93.319397 
	C107.540375,95.315102 106.074448,96.870636 104.958878,98.646286 
	C103.456619,101.037407 102.224396,103.598183 100.421249,106.037994 
	C91.487106,106.219589 82.996628,106.544777 75.083466,102.956818 
	C75.201111,102.902161 75.105919,102.660805 74.889893,102.538422 
	C74.354065,102.276169 74.028419,102.260956 73.693054,102.404167 
	C73.689194,102.437927 73.636055,102.480309 73.617195,102.100067 
	C72.987343,99.778984 72.376343,97.838127 72.070595,95.786148 
	C73.959290,94.336395 75.542740,92.997780 77.126190,91.659149 
	C78.508736,90.849594 79.891281,90.040039 81.918076,88.964523 
	C84.917519,86.738197 89.725731,87.102036 88.841011,82.071892 
M92.331726,87.977814 
	C91.038116,88.650146 89.744507,89.322472 87.779427,90.001617 
	C83.098022,91.155060 82.313194,94.890961 83.834160,98.276497 
	C84.834084,100.502213 87.959343,102.513954 91.769356,99.897293 
	C93.197685,99.226036 94.626015,98.554771 95.594994,98.099380 
	C94.701302,95.019539 93.974068,92.513329 93.889107,89.884491 
	C95.780746,89.550331 97.672379,89.216164 99.564018,88.881996 
	C99.487831,88.261307 99.411644,87.640617 99.335457,87.019920 
	C97.248398,87.296478 95.161346,87.573029 92.331726,87.977814 
M97.609772,95.183479 
	C98.529625,94.988083 99.449471,94.792686 100.369324,94.597298 
	C100.206291,94.189049 100.043259,93.780800 99.880226,93.372543 
	C99.100716,93.778412 98.321205,94.184280 97.609772,95.183479 
z"/>
<path fill="#D289DC" opacity="1.000000" stroke="none" 
	d="
M95.126289,131.611679 
	C94.220932,132.837845 93.315567,134.064011 92.207520,135.548050 
	C84.757889,136.112396 77.475693,136.081757 70.275421,136.834610 
	C64.759262,137.411362 59.346550,138.977448 53.338326,139.723907 
	C52.848419,137.636459 52.908020,135.928589 53.426224,134.209656 
	C57.994785,133.793823 62.530037,134.356323 66.123253,132.776367 
	C72.914452,129.790298 79.862274,129.434677 86.982803,128.882553 
	C88.935982,128.731110 90.719292,126.388992 92.932693,125.106316 
	C93.898651,127.310890 94.512466,129.461288 95.126289,131.611679 
z"/>
<path fill="#FDA29C" opacity="1.000000" stroke="none" 
	d="
M38.102718,108.326790 
	C42.219536,107.377243 46.269180,106.839203 50.607632,106.262794 
	C50.332695,110.707413 53.200993,111.629890 57.788971,111.284973 
	C59.241684,112.719482 60.114922,113.859169 60.786213,115.227524 
	C58.999287,116.011131 57.414307,116.566078 55.829323,117.121017 
	C52.196323,117.725273 48.978916,117.243172 46.325901,114.261841 
	C45.646400,113.498260 44.011509,113.194664 42.873978,113.301559 
	C39.374084,113.630463 37.934563,112.076614 38.102718,108.326790 
z"/>
<path fill="#FB4546" opacity="1.000000" stroke="none" 
	d="
M40.709831,129.942139 
	C42.468807,123.047997 48.443703,121.651520 54.744400,119.849190 
	C55.968136,120.341576 56.467419,120.719971 56.693905,121.288544 
	C54.900826,125.573135 49.536537,128.302170 51.627850,133.867920 
	C47.571785,132.971298 43.051392,134.341263 40.709831,129.942139 
z"/>
<path fill="#39133B" opacity="1.000000" stroke="none" 
	d="
M38.829178,81.151550 
	C42.895836,80.463280 43.350391,83.427666 43.664761,86.631485 
	C42.235687,87.660492 41.106789,88.288277 39.728653,88.679817 
	C34.564114,88.561745 31.693054,93.171135 32.912739,98.986153 
	C29.315424,95.279839 25.718105,91.573524 21.275280,86.996078 
	C23.518984,86.996078 24.380077,86.996078 25.602367,87.376266 
	C27.177025,88.808075 28.264669,90.378311 29.651634,90.714798 
	C30.470104,90.913368 31.842556,89.238670 32.827499,88.266258 
	C36.169434,84.966866 30.224493,84.320183 31.284128,81.827698 
	C34.101433,82.220352 36.976410,86.554123 38.829178,81.151550 
z"/>
<path fill="#FCDFEC" opacity="1.000000" stroke="none" 
	d="
M56.966702,121.098358 
	C56.467419,120.719971 55.968136,120.341576 55.120544,119.864349 
	C55.130089,119.084206 55.487946,118.402901 55.837566,117.421310 
	C57.414307,116.566078 58.999287,116.011131 61.207062,115.260605 
	C64.840744,115.794945 67.851624,116.524864 70.925789,117.630486 
	C69.320427,119.437508 67.651779,120.868828 65.983131,122.300140 
	C65.882896,122.331055 65.782661,122.361977 65.682426,122.392891 
	C64.465385,123.288986 63.248352,124.185081 61.807892,124.939957 
	C61.292889,123.891106 61.001305,122.983467 60.347527,122.211151 
	C58.979122,121.930443 57.972912,121.514397 56.966702,121.098358 
z"/>
<path fill="#F7E4F0" opacity="1.000000" stroke="none" 
	d="
M40.405197,130.086288 
	C43.051392,134.341263 47.571785,132.971298 51.865604,133.955627 
	C52.663540,134.073456 52.815578,134.147095 52.967621,134.220734 
	C52.908020,135.928589 52.848419,137.636459 52.900307,139.664886 
	C49.163433,139.352509 45.097717,139.289612 41.527130,137.928177 
	C37.870171,136.533798 36.543613,133.546890 40.405197,130.086288 
z"/>
<path fill="#5F6F8E" opacity="1.000000" stroke="none" 
	d="
M39.977890,88.916069 
	C41.106789,88.288277 42.235687,87.660492 43.675884,86.925873 
	C45.481400,86.910713 46.975613,87.002380 48.793449,87.149307 
	C48.658638,88.402184 48.446205,89.788574 47.697872,90.763725 
	C44.912239,94.393723 41.950550,97.888603 38.897903,101.763382 
	C38.032013,101.760475 37.323158,101.428398 36.331421,100.637306 
	C36.962967,97.679245 37.895325,95.186546 38.784195,92.678444 
	C39.223461,91.438972 39.582531,90.171097 39.977890,88.916069 
z"/>
<path fill="#5A6988" opacity="1.000000" stroke="none" 
	d="
M30.919865,81.749931 
	C30.224493,84.320183 36.169434,84.966866 32.827499,88.266258 
	C31.842556,89.238670 30.470104,90.913368 29.651634,90.714798 
	C28.264669,90.378311 27.177025,88.808075 25.902771,87.383896 
	C25.841984,85.648598 25.841984,84.285843 25.841984,82.418236 
	C26.285452,82.266861 27.430805,81.875900 29.051720,81.270821 
	C29.991476,81.287773 30.455671,81.518852 30.919865,81.749931 
z"/>
<path fill="#474A65" opacity="1.000000" stroke="none" 
	d="
M39.728653,88.679817 
	C39.582531,90.171097 39.223461,91.438972 38.784195,92.678444 
	C37.895325,95.186546 36.962967,97.679245 36.043198,100.575058 
	C34.896095,100.461502 33.754337,99.951195 32.762657,99.213516 
	C31.693054,93.171135 34.564114,88.561745 39.728653,88.679817 
z"/>
<path fill="#DD9295" opacity="1.000000" stroke="none" 
	d="
M71.765350,95.897278 
	C72.376343,97.838127 72.987343,99.778984 73.263977,101.970131 
	C70.092171,101.657867 67.254738,101.095306 64.417297,100.532738 
	C63.066200,99.433075 61.715103,98.333412 60.019894,96.953674 
	C62.841003,95.807396 64.815437,95.005135 67.148911,94.067734 
	C67.879913,94.274582 68.251884,94.616554 69.158493,94.996971 
	C70.383873,95.322693 71.074608,95.609985 71.765350,95.897278 
z"/>
<path fill="#5ADCE4" opacity="1.000000" stroke="none" 
	d="
M53.728897,67.236443 
	C54.183273,67.011421 54.377235,67.024872 54.861641,67.078690 
	C56.125111,67.529251 57.133488,68.344109 58.063572,68.262840 
	C59.833523,68.108208 61.558735,67.441483 63.699913,67.029510 
	C60.057510,69.948486 56.017712,72.825356 51.977917,75.702232 
	C51.587715,75.547844 51.197517,75.393456 50.807320,75.239059 
	C51.694374,72.651016 52.581429,70.062965 53.728897,67.236443 
z"/>
<path fill="#5C6C8C" opacity="1.000000" stroke="none" 
	d="
M31.284130,81.827698 
	C30.455671,81.518852 29.991476,81.287773 29.263329,81.027893 
	C29.829269,80.066269 30.659164,79.133446 32.126972,78.098831 
	C34.812420,79.031807 36.859951,80.066589 38.907486,81.101364 
	C38.907486,81.101364 38.857426,81.107689 38.843300,81.129623 
	C36.976410,86.554123 34.101433,82.220352 31.284130,81.827698 
z"/>
<path fill="#D18ADE" opacity="1.000000" stroke="none" 
	d="
M88.475174,82.052757 
	C89.725731,87.102036 84.917519,86.738197 82.229042,88.819565 
	C82.356041,87.220039 82.816315,85.499512 83.282547,83.396324 
	C84.895439,82.686981 86.502396,82.360298 88.475174,82.052757 
z"/>
<path fill="#39133B" opacity="1.000000" stroke="none" 
	d="
M38.972363,80.765518 
	C36.859951,80.066589 34.812420,79.031807 32.403328,77.939133 
	C33.476677,76.326874 34.911587,74.772507 37.443115,72.030243 
	C38.131092,75.655205 38.584164,78.042442 38.972363,80.765518 
z"/>
<path fill="#C180CB" opacity="1.000000" stroke="none" 
	d="
M72.070595,95.786148 
	C71.074608,95.609985 70.383873,95.322693 69.419685,94.969620 
	C69.790207,90.080605 73.244469,91.241684 76.711296,91.602585 
	C75.542740,92.997780 73.959290,94.336395 72.070595,95.786148 
z"/>
<path fill="#5ADCE4" opacity="1.000000" stroke="none" 
	d="
M64.303444,67.064926 
	C64.717834,66.753281 65.437813,66.429428 66.463051,66.033707 
	C66.048553,66.325462 65.328796,66.689087 64.303444,67.064926 
z"/>
<path fill="#390D36" opacity="1.000000" stroke="none" 
	d="
M103.013870,67.998100 
	C101.853363,67.788460 100.692841,67.578812 99.232979,66.823799 
	C98.346275,64.613182 97.758919,62.947937 97.171562,61.282688 
	C98.045212,59.762363 98.918869,58.242035 99.941200,56.420368 
	C101.218887,54.872799 102.347885,53.626564 103.935844,52.427101 
	C103.690819,54.615921 102.986839,56.757973 102.161774,59.246353 
	C102.092506,60.075108 102.144325,60.557533 102.142105,61.433735 
	C102.396660,63.884373 102.705269,65.941238 103.013870,67.998100 
z"/>
<path fill="#EC3F44" opacity="1.000000" stroke="none" 
	d="
M102.282860,58.900024 
	C102.986839,56.757973 103.690819,54.615921 104.198883,52.253761 
	C105.145020,50.733776 106.287079,49.433895 107.780823,48.102573 
	C107.791458,51.774364 107.450394,55.477596 106.748810,59.534500 
	C105.019806,59.558788 103.651329,59.229408 102.282860,58.900024 
z"/>
<path fill="#5EF0F3" opacity="1.000000" stroke="none" 
	d="
M89.698235,30.811893 
	C89.796745,31.025780 89.621513,31.376007 89.180794,31.855583 
	C89.085037,31.639364 89.254761,31.293800 89.698235,30.811893 
z"/>
<path fill="#589FE3" opacity="1.000000" stroke="none" 
	d="
M102.161774,59.246353 
	C103.651329,59.229408 105.019806,59.558788 106.744957,59.958118 
	C111.930634,62.464447 116.759628,64.900826 121.765427,67.898514 
	C121.200485,69.870338 120.458755,71.280846 119.425491,72.576416 
	C118.096985,72.281487 117.059998,72.101494 115.837631,71.654587 
	C114.384605,70.207138 113.116966,69.026581 111.826790,67.825035 
	C110.319267,69.327888 109.170921,70.472664 108.007324,71.153145 
	C108.527412,65.990479 107.894096,61.994095 102.196136,61.039959 
	C102.144325,60.557533 102.092506,60.075108 102.161774,59.246353 
z"/>
<path fill="#FDA59F" opacity="1.000000" stroke="none" 
	d="
M119.717026,72.691360 
	C120.458755,71.280846 121.200485,69.870338 122.023293,68.122055 
	C122.104362,67.784286 122.412132,67.791420 122.887833,67.842850 
	C123.900696,67.539391 124.437859,67.184502 124.975029,66.829605 
	C124.975029,66.829605 124.847443,66.850990 124.831833,66.788422 
	C126.988449,68.453720 129.160690,70.181587 131.699966,71.977722 
	C131.944870,72.350998 131.822739,72.655998 131.073578,73.040283 
	C128.232712,74.485565 126.018845,75.851570 123.486214,77.157257 
	C122.138649,76.752846 121.109848,76.408745 120.057053,75.639420 
	C119.927711,74.373253 119.822372,73.532310 119.717026,72.691360 
z"/>
<path fill="#F6D5B5" opacity="1.000000" stroke="none" 
	d="
M124.673965,66.559250 
	C124.437859,67.184502 123.900696,67.539391 123.027054,67.908508 
	C123.251350,67.378120 123.812119,66.833504 124.673965,66.559250 
z"/>
<path fill="#FDDBB5" opacity="1.000000" stroke="none" 
	d="
M119.425499,72.576416 
	C119.822372,73.532310 119.927711,74.373253 119.968002,76.022675 
	C119.277489,80.202080 118.652023,83.573021 118.026566,86.943970 
	C118.354691,87.034683 118.682808,87.125397 119.010933,87.216110 
	C120.608948,83.883263 122.206963,80.550423 123.804977,77.217575 
	C126.018845,75.851570 128.232712,74.485565 130.836975,73.134140 
	C131.753464,73.762108 132.161118,74.595825 132.825058,74.952751 
	C136.806595,77.093155 136.572922,79.666801 134.180115,83.007812 
	C131.839371,86.276093 129.933884,89.856079 127.864624,93.673996 
	C124.115372,97.051872 120.470688,99.788002 114.946175,98.637970 
	C112.930740,98.218422 110.407028,100.240562 108.115204,101.148758 
	C108.211815,101.839523 108.308434,102.530296 108.405045,103.221069 
	C111.355026,103.377968 114.305008,103.534866 117.624146,104.145805 
	C118.253578,105.340355 118.513847,106.080864 118.532196,107.053391 
	C116.606064,107.942413 114.861298,109.270279 113.249542,109.124771 
	C109.175369,108.756966 105.160995,107.726723 101.031441,106.751389 
	C100.940216,106.540924 100.876274,106.086143 100.876274,106.086143 
	C102.224396,103.598183 103.456619,101.037407 104.958878,98.646286 
	C106.074448,96.870636 107.540375,95.315102 108.899643,92.859779 
	C108.927139,88.360863 108.905235,84.663689 108.911461,80.568420 
	C108.799950,75.273239 110.872826,72.276085 116.023018,71.921494 
	C117.059998,72.101494 118.096985,72.281487 119.425499,72.576416 
z"/>
<path fill="#F6A19E" opacity="1.000000" stroke="none" 
	d="
M101.122665,106.961868 
	C105.160995,107.726723 109.175369,108.756966 113.249542,109.124771 
	C114.861298,109.270279 116.606064,107.942413 118.584854,107.497192 
	C118.931915,109.485443 118.984398,111.261909 119.036880,113.038368 
	C119.036880,113.038368 119.027504,113.413925 118.582359,113.652260 
	C114.736885,113.287460 111.336555,112.684319 107.571030,112.040466 
	C106.226364,111.952217 105.246895,111.904686 104.179947,111.615387 
	C103.813370,111.191177 103.534271,111.008736 103.102005,110.532883 
	C102.340111,109.146935 101.731392,108.054398 101.122665,106.961868 
z"/>
<path fill="#1345A3" opacity="1.000000" stroke="none" 
	d="
M107.936226,112.081184 
	C111.336555,112.684319 114.736885,113.287460 118.574219,113.839920 
	C119.734505,114.297844 120.457794,114.806442 121.368896,115.593475 
	C120.747551,116.753250 119.938385,117.634583 118.661194,118.985092 
	C115.799698,121.799583 113.320038,122.688438 110.503113,119.537193 
	C109.567635,116.808472 108.751930,114.444824 107.936226,112.081184 
z"/>
<path fill="#F09894" opacity="1.000000" stroke="none" 
	d="
M119.290787,112.791153 
	C118.984398,111.261909 118.931915,109.485443 118.826782,107.265182 
	C118.513847,106.080864 118.253578,105.340355 117.951195,104.304855 
	C121.236786,106.321289 121.927910,109.138008 119.290787,112.791153 
z"/>
<path fill="#F09894" opacity="1.000000" stroke="none" 
	d="
M125.252441,108.409988 
	C124.293808,108.136826 123.190826,107.599800 122.087837,107.062782 
	C122.392944,106.573578 122.698051,106.084373 123.003159,105.595177 
	C123.704803,106.445488 124.406441,107.295807 125.252441,108.409988 
z"/>
<path fill="#B11549" opacity="1.000000" stroke="none" 
	d="
M128.805984,127.985733 
	C130.431747,128.945847 132.057510,129.905945 134.268265,131.211517 
	C134.579575,129.562851 134.828339,128.245499 135.132065,126.552162 
	C138.397491,129.588608 137.151886,133.176453 134.017242,134.960327 
	C128.975220,137.829666 123.439781,140.839020 117.849724,141.474350 
	C111.380966,142.209564 104.627541,140.440079 97.905914,139.141266 
	C99.563515,136.660522 101.312904,134.796524 103.452934,133.116135 
	C109.257347,132.489319 114.704788,131.850983 120.071625,130.800705 
	C123.052544,130.217361 125.898949,128.946640 128.805984,127.985733 
z"/>
<path fill="#F64349" opacity="1.000000" stroke="none" 
	d="
M103.062302,132.932541 
	C101.312904,134.796524 99.563515,136.660522 97.648209,138.852386 
	C96.727669,136.942734 95.973030,134.705215 95.172348,132.039688 
	C94.512466,129.461288 93.898651,127.310890 92.476479,125.064590 
	C87.012527,124.580040 85.690376,122.461861 87.981598,118.548927 
	C88.713173,117.299545 90.366776,116.590057 91.817703,115.749710 
	C92.036896,115.865875 92.501228,116.040657 92.501228,116.040657 
	C92.501228,116.040657 92.985359,115.932175 93.362038,116.046188 
	C95.327232,116.485672 96.915756,116.811142 97.450638,116.920738 
	C100.192642,114.883949 102.230034,113.370560 104.267418,111.857162 
	C105.246895,111.904686 106.226364,111.952217 107.571030,112.040466 
	C108.751930,114.444824 109.567635,116.808472 110.086952,119.575783 
	C107.169350,121.215851 104.388290,122.205788 101.978676,123.768471 
	C100.130135,124.967293 99.469727,126.702377 102.649094,127.353127 
	C102.691826,129.426651 102.877068,131.179596 103.062302,132.932541 
z"/>
<path fill="#FAE3F0" opacity="1.000000" stroke="none" 
	d="
M103.452942,133.116135 
	C102.877068,131.179596 102.691826,129.426651 102.944519,127.246460 
	C109.391571,122.687386 116.167786,122.476379 123.080925,122.965218 
	C123.080925,122.965218 123.014038,122.980843 123.050827,123.137848 
	C123.186829,123.551018 123.372597,123.694725 123.644920,123.725967 
	C125.200180,124.994164 126.755447,126.262352 128.558350,127.758133 
	C125.898949,128.946640 123.052544,130.217361 120.071625,130.800705 
	C114.704788,131.850983 109.257347,132.489319 103.452942,133.116135 
z"/>
<path fill="#D789D9" opacity="1.000000" stroke="none" 
	d="
M123.108292,122.644920 
	C116.167786,122.476379 109.391571,122.687386 103.087036,126.925873 
	C99.469727,126.702377 100.130135,124.967293 101.978676,123.768471 
	C104.388290,122.205788 107.169350,121.215851 110.206726,119.940865 
	C113.320038,122.688438 115.799698,121.799583 118.459358,119.280022 
	C119.491852,119.470543 120.258156,119.835304 121.348022,120.204407 
	C122.159599,120.914047 122.647621,121.619331 123.108292,122.644920 
z"/>
<path fill="#D789D9" opacity="1.000000" stroke="none" 
	d="
M123.598053,123.555420 
	C123.372597,123.694725 123.186829,123.551018 123.061874,123.105331 
	C123.291931,122.980286 123.463615,123.136635 123.598053,123.555420 
z"/>
<path fill="#F4A49D" opacity="1.000000" stroke="none" 
	d="
M86.697052,64.048851 
	C81.665421,64.680595 76.633797,65.312332 71.161537,65.976212 
	C69.850204,63.008453 71.021027,61.486900 74.054085,60.872002 
	C77.772957,60.118076 81.430290,59.060646 85.651031,58.449020 
	C86.357567,60.525356 86.527313,62.287106 86.697052,64.048851 
z"/>
<path fill="#492143" opacity="1.000000" stroke="none" 
	d="
M86.804344,64.408440 
	C86.527313,62.287106 86.357567,60.525356 86.047638,58.406654 
	C87.580101,58.767231 89.252762,59.484768 90.904015,60.985897 
	C90.817032,64.448334 90.751457,67.127182 90.685883,69.806030 
	C89.961670,69.858238 88.688019,70.138161 88.600319,69.926559 
	C87.909622,68.260017 87.445503,66.499573 86.804344,64.408440 
z"/>
<path fill="#F3A09C" opacity="1.000000" stroke="none" 
	d="
M91.065910,69.817520 
	C90.751457,67.127182 90.817032,64.448334 90.978134,61.324097 
	C91.605667,62.168922 92.137688,63.459141 92.942581,65.411118 
	C94.331245,64.094025 95.539589,62.947971 96.959747,61.542305 
	C97.758919,62.947937 98.346275,64.613182 98.977264,66.627289 
	C96.495911,67.927101 93.970924,68.878059 91.065910,69.817520 
z"/>
<path fill="#DA92E3" opacity="1.000000" stroke="none" 
	d="
M108.883339,80.966522 
	C108.905235,84.663689 108.927139,88.360863 108.933395,92.517647 
	C104.854706,85.638489 97.675354,84.001625 90.167816,82.422218 
	C93.631241,81.989723 97.193779,81.918892 101.499863,81.929306 
	C103.286156,81.673965 104.328918,81.337387 105.721321,80.994675 
	C107.008423,80.981201 107.945877,80.973869 108.883339,80.966522 
z"/>
<path fill="#E05251" opacity="1.000000" stroke="none" 
	d="
M105.371681,81.000809 
	C104.328918,81.337387 103.286156,81.673965 101.935287,81.896385 
	C99.797035,79.531525 97.966888,77.280823 96.164680,75.064484 
	C98.355835,73.485107 100.569405,71.889580 103.188065,70.018524 
	C104.430504,70.354416 105.267845,70.965836 106.079376,72.043137 
	C105.826271,75.339615 105.598976,78.170219 105.371681,81.000809 
z"/>
<path fill="#68E5EC" opacity="1.000000" stroke="none" 
	d="
M106.105194,71.577255 
	C105.267845,70.965836 104.430504,70.354416 103.248398,69.666733 
	C102.941597,69.237968 102.979561,68.885475 103.015701,68.265533 
	C102.705269,65.941238 102.396660,63.884373 102.142097,61.433735 
	C107.894096,61.994095 108.527412,65.990479 107.958107,71.355339 
	C107.317825,71.873634 106.711510,71.725449 106.105194,71.577255 
z"/>
<path fill="#FB4547" opacity="1.000000" stroke="none" 
	d="
M70.862503,117.254776 
	C67.851624,116.524864 64.840744,115.794945 61.409012,115.031937 
	C60.114922,113.859169 59.241684,112.719482 58.228531,111.307053 
	C58.895290,110.382790 59.701973,109.731255 60.984306,108.930511 
	C61.874111,108.624306 62.288265,108.467331 63.090942,108.183540 
	C64.860680,108.218880 66.453171,108.903328 67.583771,108.445961 
	C71.076645,107.032990 73.229500,108.512085 75.047470,111.514267 
	C73.616531,113.664597 72.239517,115.459686 70.862503,117.254776 
z"/>
<path fill="#0462CD" opacity="1.000000" stroke="none" 
	d="
M75.101387,111.159027 
	C73.229500,108.512085 71.076645,107.032990 67.583771,108.445961 
	C66.453171,108.903328 64.860680,108.218880 62.876251,108.021706 
	C62.116817,107.666840 61.960598,107.347000 61.804382,107.027153 
	C62.622276,105.076355 63.440170,103.125557 64.337677,100.853745 
	C67.254738,101.095306 70.092171,101.657867 73.282837,102.350372 
	C73.636055,102.480309 73.689194,102.437927 73.875443,102.611893 
	C74.409760,102.744179 74.757843,102.702492 75.105919,102.660805 
	C75.105919,102.660805 75.201111,102.902161 75.118027,103.370758 
	C75.339912,106.358551 75.644875,108.877754 75.743195,111.318001 
	C75.536537,111.239052 75.101387,111.159027 75.101387,111.159027 
z"/>
<path fill="#F8D5B2" opacity="1.000000" stroke="none" 
	d="
M58.937538,96.234604 
	C58.739029,97.304810 58.610352,98.105064 58.253632,98.785812 
	C58.114182,99.051926 57.462490,99.049622 57.012657,99.178596 
	C56.683273,95.155586 56.683273,95.155586 58.937538,96.234604 
z"/>
<path fill="#F8D5B2" opacity="1.000000" stroke="none" 
	d="
M56.056824,91.631325 
	C56.412872,91.424263 56.815525,91.380028 57.208385,91.423744 
	C57.260143,91.429497 57.261917,91.884552 57.286839,92.131516 
	C56.891350,92.028198 56.495857,91.924889 56.056824,91.631325 
z"/>
<path fill="#F8D5B2" opacity="1.000000" stroke="none" 
	d="
M61.637249,107.197746 
	C61.960598,107.347000 62.116817,107.666840 62.487728,108.148521 
	C62.288265,108.467331 61.874111,108.624306 61.232174,108.740150 
	C61.159634,108.255455 61.314877,107.811897 61.637249,107.197746 
z"/>
<path fill="#F8D5B2" opacity="1.000000" stroke="none" 
	d="
M54.592361,99.856262 
	C54.665665,99.922203 54.408352,100.154831 54.408352,100.154831 
	C54.408352,100.154831 54.519062,99.790329 54.592361,99.856262 
z"/>
<path fill="#F8D5B2" opacity="1.000000" stroke="none" 
	d="
M52.484207,103.509743 
	C52.473812,103.485054 52.494606,103.534431 52.484207,103.509743 
z"/>
<path fill="#1345A4" opacity="1.000000" stroke="none" 
	d="
M75.949844,111.396950 
	C75.644875,108.877754 75.339912,106.358551 75.000381,103.425415 
	C82.996628,106.544777 91.487106,106.219589 100.421249,106.037994 
	C100.876274,106.086143 100.940216,106.540924 101.031441,106.751396 
	C101.731392,108.054398 102.340111,109.146935 102.633270,110.570679 
	C99.128555,110.901886 95.939407,110.901886 92.468300,110.901886 
	C92.693672,113.094437 92.839516,114.513306 92.985359,115.932175 
	C92.985359,115.932175 92.501228,116.040657 92.501228,116.040657 
	C92.501228,116.040657 92.036896,115.865875 91.731491,115.411636 
	C90.011528,113.415573 87.969780,110.323738 87.290352,110.598656 
	C84.256020,111.826485 81.610497,114.015198 78.716217,115.928459 
	C77.789787,114.410904 76.869812,112.903923 75.949844,111.396950 
z"/>
<path fill="#FED2DC" opacity="1.000000" stroke="none" 
	d="
M91.064987,99.839516 
	C87.959343,102.513954 84.834084,100.502213 83.834160,98.276497 
	C82.313194,94.890961 83.098022,91.155060 88.422218,90.231468 
	C91.796867,93.146965 92.904121,96.179070 91.064987,99.839516 
z"/>
<path fill="#FB5555" opacity="1.000000" stroke="none" 
	d="
M91.417175,99.868408 
	C92.904121,96.179070 91.796867,93.146965 88.757957,90.228058 
	C89.744507,89.322472 91.038116,88.650146 92.742081,88.272491 
	C93.183899,89.047150 93.215363,89.527138 93.246826,90.007118 
	C93.974068,92.513329 94.701302,95.019539 95.594994,98.099380 
	C94.626015,98.554771 93.197685,99.226036 91.417175,99.868408 
z"/>
<path fill="#FEE0ED" opacity="1.000000" stroke="none" 
	d="
M93.567963,89.945801 
	C93.215363,89.527138 93.183899,89.047150 93.113358,88.208374 
	C95.161346,87.573029 97.248398,87.296478 99.335457,87.019920 
	C99.411644,87.640617 99.487831,88.261307 99.564018,88.881996 
	C97.672379,89.216164 95.780746,89.550331 93.567963,89.945801 
z"/>
<path fill="#FEE0ED" opacity="1.000000" stroke="none" 
	d="
M97.575737,94.886810 
	C98.321205,94.184280 99.100716,93.778412 99.880226,93.372543 
	C100.043259,93.780800 100.206291,94.189049 100.369324,94.597290 
	C99.449471,94.792686 98.529625,94.988083 97.575737,94.886810 
z"/>
<path fill="#DD9295" opacity="1.000000" stroke="none" 
	d="
M74.889893,102.538422 
	C74.757843,102.702492 74.409760,102.744179 73.879303,102.578133 
	C74.028419,102.260956 74.354065,102.276169 74.889893,102.538422 
z"/>
<path fill="#B01249" opacity="1.000000" stroke="none" 
	d="
M75.743195,111.318001 
	C76.869812,112.903923 77.789787,114.410904 78.716217,115.928459 
	C81.610497,114.015198 84.256020,111.826485 87.290352,110.598656 
	C87.969780,110.323738 90.011528,113.415573 91.512299,115.295471 
	C90.366776,116.590057 88.713173,117.299545 87.981598,118.548927 
	C85.690376,122.461861 87.012527,124.580040 92.124336,125.010406 
	C90.719292,126.388992 88.935982,128.731110 86.982803,128.882553 
	C79.862274,129.434677 72.914452,129.790298 66.123253,132.776367 
	C62.530037,134.356323 57.994785,133.793823 53.426224,134.209656 
	C52.815578,134.147095 52.663540,134.073456 52.273743,133.912094 
	C49.536537,128.302170 54.900826,125.573135 56.693905,121.288544 
	C57.972912,121.514397 58.979122,121.930443 60.259869,122.628632 
	C59.724304,123.568405 58.914204,124.226021 58.006546,124.667603 
	C57.664513,124.488380 57.420044,124.525185 57.175575,124.561996 
	C57.331932,124.825272 57.488289,125.088547 57.755070,125.665901 
	C58.648605,126.964546 59.431717,127.949104 60.920654,129.821060 
	C61.487083,127.403755 61.759201,126.242470 62.031319,125.081177 
	C63.248352,124.185081 64.465385,123.288986 65.682426,122.392891 
	C65.782661,122.361977 65.882896,122.331055 65.983131,122.300140 
	C67.651779,120.868828 69.320427,119.437508 70.925789,117.630486 
	C72.239517,115.459686 73.616531,113.664597 75.047470,111.514267 
	C75.101387,111.159027 75.536537,111.239052 75.743195,111.318001 
z"/>
<path fill="#D07AC1" opacity="1.000000" stroke="none" 
	d="
M58.104103,124.883629 
	C58.914204,124.226021 59.724304,123.568405 60.622063,122.493309 
	C61.001305,122.983467 61.292889,123.891106 61.807896,124.939957 
	C61.759201,126.242470 61.487083,127.403755 60.920654,129.821060 
	C59.431717,127.949104 58.648605,126.964546 57.870537,125.549438 
	C57.875584,125.118904 58.104099,124.883629 58.104103,124.883629 
z"/>
<path fill="#F6A2A0" opacity="1.000000" stroke="none" 
	d="
M106.079376,72.043137 
	C106.711510,71.725449 107.317825,71.873634 107.973358,71.819626 
	C109.170921,70.472664 110.319267,69.327888 111.826790,67.825035 
	C113.116966,69.026581 114.384605,70.207138 115.837631,71.654587 
	C110.872826,72.276085 108.799950,75.273239 108.911461,80.568420 
	C107.945877,80.973869 107.008423,80.981201 105.721321,80.994675 
	C105.598976,78.170219 105.826271,75.339615 106.079376,72.043137 
z"/>
<path fill="#DB94E2" opacity="1.000000" stroke="none" 
	d="
M123.486214,77.157257 
	C122.206963,80.550423 120.608948,83.883263 119.010933,87.216110 
	C118.682808,87.125397 118.354691,87.034683 118.026566,86.943970 
	C118.652023,83.573021 119.277489,80.202080 119.991997,76.447891 
	C121.109848,76.408745 122.138649,76.752846 123.486214,77.157257 
z"/>
<path fill="#0262CE" opacity="1.000000" stroke="none" 
	d="
M93.362038,116.046188 
	C92.839516,114.513306 92.693672,113.094437 92.468300,110.901886 
	C95.939407,110.901886 99.128555,110.901886 102.786438,110.864090 
	C103.534271,111.008736 103.813370,111.191177 104.179947,111.615387 
	C102.230034,113.370560 100.192642,114.883949 97.450638,116.920738 
	C96.915756,116.811142 95.327232,116.485672 93.362038,116.046188 
z"/>
<path fill="#D07AC1" opacity="1.000000" stroke="none" 
	d="
M57.760117,125.235367 
	C57.488289,125.088547 57.331932,124.825272 57.175575,124.561996 
	C57.420044,124.525185 57.664513,124.488380 58.006542,124.667603 
	C58.104099,124.883629 57.875584,125.118904 57.760117,125.235367 
z"/>
</svg>