<svg version="1.1" id="Layer_1" xmlns="http://www.w3.org/2000/svg" xmlns:xlink="http://www.w3.org/1999/xlink" x="0px" y="0px"
	 width="100%" viewBox="0 0 225 225" enable-background="new 0 0 225 225" xml:space="preserve" opacity="0.500000">
<path fill="#4C2451" opacity="1.000000" stroke="none" 
	d="
M226.000000,101.000000 
	C226.000000,109.020897 226.000000,117.041801 225.629517,125.690292 
	C223.891968,138.851395 220.415207,150.854004 214.852859,162.083572 
	C199.680283,192.714737 175.604630,212.873520 142.552628,222.013138 
	C136.775986,223.610504 130.854553,224.684372 125.000000,226.000000 
	C125.000000,226.000000 124.500000,226.000000 124.254738,225.627716 
	C125.055344,223.489273 126.011993,221.661758 127.172012,219.974045 
	C128.348755,218.261978 129.726334,216.687958 131.294769,214.999878 
	C132.043076,214.654633 132.512543,214.363007 133.159714,213.866440 
	C133.295471,213.054901 133.253540,212.448288 133.006607,211.573471 
	C130.796112,209.814163 128.790588,208.323059 126.808578,206.574997 
	C126.905945,205.812073 126.979828,205.306122 127.361908,204.585205 
	C128.669113,202.685364 129.330978,200.622452 130.724411,199.379929 
	C137.403214,193.424484 137.716644,185.941498 136.446259,177.929382 
	C136.188675,176.304901 136.313202,174.619827 136.594666,172.907318 
	C143.105072,170.817261 144.528717,166.000214 144.453644,159.808105 
	C145.009399,156.527008 145.429214,153.664169 145.923203,150.370804 
	C145.276398,145.089630 144.555405,140.238998 143.993500,135.067154 
	C148.197327,130.568802 152.232254,126.382133 156.288757,122.216476 
	C164.515472,113.768425 172.753845,105.331757 180.794739,96.613678 
	C175.695099,93.974640 170.788116,91.612305 166.051910,88.933823 
	C167.457825,87.271500 168.754013,85.975739 169.915253,84.568596 
	C172.298615,81.680573 174.609665,78.732903 177.177826,75.579140 
	C179.055634,74.208374 180.706070,73.068260 182.896210,71.555313 
	C169.705933,66.986435 157.715973,69.538795 145.464020,72.826538 
	C142.761551,62.768936 137.385071,55.415005 127.993271,51.263374 
	C126.870544,50.767082 126.297142,48.335598 126.033234,46.709545 
	C124.920525,39.853645 124.634460,32.800751 122.868355,26.131790 
	C121.177284,19.746115 119.468254,12.907003 112.777405,9.157704 
	C107.931419,13.567349 103.386467,17.821875 98.488297,22.006088 
	C95.829887,20.978952 93.600258,19.700222 91.202583,19.137390 
	C87.155762,18.187437 83.002480,17.691023 78.562271,17.066473 
	C76.702538,18.368362 75.050575,19.483431 73.665016,20.865561 
	C52.163055,42.314354 30.709192,63.811398 9.190432,85.243286 
	C7.712230,86.715530 5.808608,87.760628 4.060385,88.609856 
	C11.462157,56.999691 28.948668,32.950474 56.560066,16.795700 
	C65.328049,11.665762 75.309975,8.511682 84.927414,4.972519 
	C90.075127,3.078190 95.629272,2.288305 101.000000,1.000000 
	C108.687576,1.000000 116.375153,1.000000 124.601006,1.386569 
	C138.257370,3.253880 150.791534,6.766207 162.740982,12.410473 
	C177.226730,19.252741 189.005997,29.679504 199.561905,41.347294 
	C209.041153,51.825054 215.877243,64.164665 220.009201,77.765488 
	C222.332016,85.411324 224.023865,93.248840 226.000000,101.000000 
z"/>
<path fill="#412046" opacity="1.000000" stroke="none" 
	d="
M4.102829,89.004372 
	C5.808608,87.760628 7.712230,86.715530 9.190432,85.243286 
	C30.709192,63.811398 52.163055,42.314354 73.665016,20.865561 
	C75.050575,19.483431 76.702538,18.368362 78.745453,17.363491 
	C86.111267,26.763462 89.267883,37.110023 89.507889,49.113770 
	C75.808556,45.817951 62.646297,45.991173 48.599762,50.698235 
	C57.375942,57.214355 65.341476,63.128590 73.452232,69.150642 
	C67.341309,70.285553 61.927277,71.291039 56.513248,72.296524 
	C56.461174,72.860092 56.409100,73.423653 56.357025,73.987221 
	C63.256432,78.056328 70.155830,82.125427 76.745506,86.011864 
	C72.679298,88.880424 68.835754,91.591904 64.992203,94.303383 
	C65.229897,94.803772 65.467583,95.304161 65.705276,95.804550 
	C70.569313,96.814217 75.433342,97.823891 80.498199,99.114075 
	C82.903679,105.649582 86.642967,110.045929 93.895409,110.596909 
	C97.688248,113.619446 101.430466,116.293755 105.045891,119.295731 
	C103.662140,120.127869 102.405174,120.632332 100.821747,120.969162 
	C94.425995,122.395897 88.356712,123.990257 82.006676,125.658371 
	C83.041946,127.675201 83.643211,128.846527 84.106949,130.353378 
	C80.222572,136.874420 78.549263,143.551666 79.227997,151.174149 
	C79.823082,154.530350 80.395035,157.493576 80.844719,160.892883 
	C80.560272,167.382614 83.764824,171.259964 88.908539,174.361160 
	C87.247826,184.874039 87.819916,194.290939 96.325508,201.579834 
	C97.112793,202.254486 97.408928,203.502258 97.966675,204.688370 
	C98.060074,205.166916 98.088165,205.444229 97.937836,206.042023 
	C95.929428,208.893005 94.067703,211.426712 92.496063,214.238281 
	C94.584114,214.678741 96.381363,214.972733 98.180161,214.982513 
	C109.125229,215.042084 120.070648,215.036987 131.015961,215.053497 
	C129.726334,216.687958 128.348755,218.261978 127.172012,219.974045 
	C126.011993,221.661758 125.055344,223.489273 124.004738,225.627716 
	C116.312424,226.000000 108.624847,226.000000 100.320518,225.632477 
	C97.917664,224.898422 96.133766,224.520721 94.345139,224.166977 
	C50.915207,215.577972 21.715395,190.392090 6.918138,148.728241 
	C4.307855,141.378601 2.941048,133.587326 1.000000,126.000000 
	C1.000000,117.979103 1.000000,109.958199 1.369579,101.316879 
	C2.527049,96.799088 3.314939,92.901733 4.102829,89.004372 
z"/>
<path fill="#FDFDFD" opacity="1.000000" stroke="none" 
	d="
M226.000000,100.531342 
	C224.023865,93.248840 222.332016,85.411324 220.009201,77.765488 
	C215.877243,64.164665 209.041153,51.825054 199.561905,41.347294 
	C189.005997,29.679504 177.226730,19.252741 162.740982,12.410473 
	C150.791534,6.766207 138.257370,3.253880 125.069641,1.386569 
	C158.593231,1.000000 192.186478,1.000000 226.000000,1.000000 
	C226.000000,34.020569 226.000000,67.041626 226.000000,100.531342 
z"/>
<path fill="#FEFEFE" opacity="1.000000" stroke="none" 
	d="
M4.060386,88.609856 
	C3.314939,92.901733 2.527049,96.799088 1.369579,100.848221 
	C1.000000,67.739731 1.000000,34.479462 1.000000,1.000000 
	C34.020573,1.000000 67.041626,1.000000 100.531342,1.000000 
	C95.629272,2.288305 90.075127,3.078190 84.927414,4.972519 
	C75.309975,8.511682 65.328049,11.665762 56.560066,16.795700 
	C28.948668,32.950474 11.462157,56.999691 4.060386,88.609856 
z"/>
<path fill="#FEFEFE" opacity="1.000000" stroke="none" 
	d="
M125.468658,226.000000 
	C130.854553,224.684372 136.775986,223.610504 142.552628,222.013138 
	C175.604630,212.873520 199.680283,192.714737 214.852859,162.083572 
	C220.415207,150.854004 223.891968,138.851395 225.629517,126.158951 
	C226.000000,159.260635 226.000000,192.521255 226.000000,226.000000 
	C192.646088,226.000000 159.291702,226.000000 125.468658,226.000000 
z"/>
<path fill="#FEFEFE" opacity="1.000000" stroke="none" 
	d="
M1.000000,126.468658 
	C2.941048,133.587326 4.307855,141.378601 6.918138,148.728241 
	C21.715395,190.392090 50.915207,215.577972 94.345139,224.166977 
	C96.133766,224.520721 97.917664,224.898422 99.851883,225.632477 
	C67.072693,226.000000 34.145393,226.000000 1.000000,226.000000 
	C1.000000,192.979431 1.000000,159.958374 1.000000,126.468658 
z"/>
<path fill="#535A68" opacity="1.000000" stroke="none" 
	d="
M80.297379,98.833557 
	C75.433342,97.823891 70.569313,96.814217 65.705276,95.804550 
	C65.467583,95.304161 65.229897,94.803772 64.992203,94.303383 
	C68.835754,91.591904 72.679298,88.880424 76.745506,86.011864 
	C70.155830,82.125427 63.256432,78.056328 56.357025,73.987221 
	C56.409100,73.423653 56.461174,72.860092 56.513248,72.296524 
	C61.927277,71.291039 67.341309,70.285553 73.452232,69.150642 
	C65.341476,63.128590 57.375942,57.214355 48.599762,50.698235 
	C62.646297,45.991173 75.808556,45.817951 89.507889,49.113770 
	C89.267883,37.110023 86.111267,26.763462 79.077156,17.300903 
	C83.002480,17.691023 87.155762,18.187437 91.202583,19.137390 
	C93.600258,19.700222 95.829887,20.978952 98.695496,22.273525 
	C103.841042,27.193104 108.426155,31.774933 113.078445,36.423885 
	C113.078445,27.473562 113.078445,18.238073 113.078445,9.002584 
	C119.468254,12.907003 121.177284,19.746115 122.868355,26.131790 
	C124.634460,32.800751 124.920525,39.853645 126.033234,46.709545 
	C126.297142,48.335598 126.870544,50.767082 127.993271,51.263374 
	C137.385071,55.415005 142.761551,62.768936 145.464020,72.826538 
	C157.715973,69.538795 169.705933,66.986435 182.896210,71.555313 
	C180.706070,73.068260 179.055634,74.208374 176.843155,75.693810 
	C169.791168,79.956100 163.301208,83.873070 156.811264,87.790039 
	C156.939621,88.107880 157.067993,88.425728 157.196350,88.743568 
	C160.091278,88.912369 162.986206,89.081169 165.881134,89.249969 
	C170.788116,91.612305 175.695099,93.974640 180.393860,96.662827 
	C170.088470,99.280556 159.991302,101.572426 148.697083,104.136002 
	C151.936432,105.863976 153.976837,106.952393 157.147705,108.643837 
	C147.877274,109.559273 139.997437,110.337387 132.088242,110.789932 
	C132.359314,109.903885 132.659744,109.343399 133.357544,108.834976 
	C140.256470,108.454315 144.108536,104.809647 145.120453,97.483551 
	C145.407028,95.408852 144.460907,93.163879 144.080139,90.997002 
	C142.054153,91.716438 140.028168,92.435867 137.714386,93.184166 
	C136.035477,92.280159 134.644363,91.347290 134.222397,91.064323 
	C134.894608,87.298012 135.437805,84.254570 135.981003,81.211128 
	C135.464508,81.070976 134.948029,80.930824 134.431534,80.790672 
	C131.130432,82.759659 127.829330,84.728653 124.327957,86.817093 
	C123.920906,81.298157 127.811897,75.884293 122.398460,70.963371 
	C118.315536,75.112152 114.316162,79.176041 110.025742,83.535660 
	C109.876114,80.733070 109.748138,78.335953 109.557404,74.763321 
	C105.479042,79.204247 102.094444,82.889740 97.779114,87.588692 
	C98.205376,82.121887 98.526764,77.999985 98.871048,73.584450 
	C90.295418,79.484703 90.295418,79.484703 92.408447,89.688583 
	C92.057556,89.978996 91.922729,90.101746 91.434021,90.216827 
	C90.773499,91.143181 90.648125,92.209129 90.097527,92.965569 
	C89.720657,93.483337 88.751465,93.569962 88.020004,93.895226 
	C87.992943,93.941124 88.076637,94.007088 87.983261,93.768173 
	C87.597046,93.366524 87.304214,93.203789 86.867294,92.739922 
	C85.151436,91.902267 82.804428,90.472984 82.173935,91.020470 
	C80.969177,92.066605 80.618683,94.206177 80.160446,95.956528 
	C79.928413,96.842842 80.234558,97.870049 80.297379,98.833557 
M113.642082,39.892857 
	C113.642082,39.892857 113.353531,39.982471 113.353531,39.982471 
	C113.353531,39.982471 113.641518,40.079262 113.642082,39.892857 
z"/>
<path fill="#422046" opacity="1.000000" stroke="none" 
	d="
M132.117615,111.115501 
	C139.997437,110.337387 147.877274,109.559273 157.147705,108.643837 
	C153.976837,106.952393 151.936432,105.863976 148.697083,104.136002 
	C159.991302,101.572426 170.088470,99.280556 180.586517,96.939537 
	C172.753845,105.331757 164.515472,113.768425 156.288757,122.216476 
	C152.232254,126.382133 148.197327,130.568802 143.730911,134.849091 
	C142.496918,133.349350 141.684631,131.746475 141.009644,129.821609 
	C141.746185,128.536789 142.345428,127.573975 143.160965,126.263680 
	C137.787506,124.246407 132.733902,122.233475 127.581932,120.515488 
	C126.585114,120.183075 125.203995,121.003128 123.648300,121.197220 
	C122.145660,120.391876 120.994858,119.680878 120.086586,118.702194 
	C124.258621,115.994835 128.188126,113.555168 132.117615,111.115501 
z"/>
<path fill="#FD5E2E" opacity="1.000000" stroke="none" 
	d="
M136.261566,172.962677 
	C136.313202,174.619827 136.188675,176.304901 136.446259,177.929382 
	C137.716644,185.941498 137.403214,193.424484 130.724411,199.379929 
	C129.330978,200.622452 128.669113,202.685364 126.935890,204.388916 
	C123.088043,204.275467 119.974426,204.143311 117.137619,203.785080 
	C118.696190,203.131180 119.977966,202.703354 121.259735,202.275528 
	C116.772842,201.481247 116.926743,198.329590 116.956352,195.206085 
	C117.008011,189.756729 117.011711,184.306931 117.410110,178.914612 
	C120.833961,177.874527 123.883224,176.777115 127.138184,175.605682 
	C124.255882,169.637222 121.607681,164.153503 118.564171,157.851227 
	C123.972000,157.851227 128.564636,157.851227 133.352310,158.093384 
	C134.261765,159.587021 134.976181,160.838486 135.692215,162.543488 
	C135.883087,166.318893 136.072327,169.640793 136.261566,172.962677 
z"/>
<path fill="#412046" opacity="1.000000" stroke="none" 
	d="
M112.777405,9.157704 
	C113.078445,18.238073 113.078445,27.473562 113.078445,36.423885 
	C108.426155,31.774933 103.841042,27.193104 99.048721,22.343836 
	C103.386467,17.821875 107.931419,13.567349 112.777405,9.157704 
z"/>
<path fill="#E9C1AB" opacity="1.000000" stroke="none" 
	d="
M140.872360,130.143616 
	C141.684631,131.746475 142.496918,133.349350 143.571808,135.170288 
	C144.555405,140.238998 145.276398,145.089630 145.482758,150.367966 
	C142.303894,150.758163 139.639633,150.720673 136.913940,150.305328 
	C135.103867,142.705307 134.055710,135.625443 140.872360,130.143616 
z"/>
<path fill="#3B4CAF" opacity="1.000000" stroke="none" 
	d="
M136.975388,150.683182 
	C139.639633,150.720673 142.303894,150.758163 145.408569,150.798492 
	C145.429214,153.664169 145.009399,156.527008 144.135468,159.891754 
	C141.017746,160.959076 138.354172,161.524521 135.690598,162.089951 
	C134.976181,160.838486 134.261765,159.587021 133.466721,157.791595 
	C133.109695,156.117020 132.833298,154.986420 132.755798,153.575806 
	C134.294937,152.424927 135.635162,151.554062 136.975388,150.683182 
z"/>
<path fill="#422247" opacity="1.000000" stroke="none" 
	d="
M166.051910,88.933823 
	C162.986206,89.081169 160.091278,88.912369 157.196350,88.743568 
	C157.067993,88.425728 156.939621,88.107880 156.811264,87.790039 
	C163.301208,83.873070 169.791168,79.956100 176.615784,75.924461 
	C174.609665,78.732903 172.298615,81.680573 169.915253,84.568596 
	C168.754013,85.975739 167.457825,87.271500 166.051910,88.933823 
z"/>
<path fill="#243A90" opacity="1.000000" stroke="none" 
	d="
M126.785080,206.831970 
	C128.790588,208.323059 130.796112,209.814163 132.519806,211.638062 
	C125.511726,212.013367 118.785469,212.055847 112.041992,211.696320 
	C112.015633,210.219742 112.006477,209.145172 112.445389,207.971603 
	C117.524002,207.525711 122.154533,207.178833 126.785080,206.831970 
z"/>
<path fill="#E7C2AB" opacity="1.000000" stroke="none" 
	d="
M135.692215,162.543488 
	C138.354172,161.524521 141.017746,160.959076 143.999496,160.309998 
	C144.528717,166.000214 143.105072,170.817261 136.594666,172.907318 
	C136.072327,169.640793 135.883087,166.318893 135.692215,162.543488 
z"/>
<path fill="#2D0035" opacity="1.000000" stroke="none" 
	d="
M131.294769,214.999878 
	C120.070648,215.036987 109.125229,215.042084 98.180161,214.982513 
	C96.381363,214.972733 94.584114,214.678741 92.833633,214.026367 
	C99.203476,213.364197 105.525841,213.191757 112.093491,213.387207 
	C119.219864,213.860535 126.100945,213.965942 132.982025,214.071365 
	C132.512543,214.363007 132.043076,214.654633 131.294769,214.999878 
z"/>
<path fill="#C6C9CD" opacity="1.000000" stroke="none" 
	d="
M126.808571,206.574982 
	C122.154533,207.178833 117.524002,207.525711 112.418983,207.826538 
	C111.944504,207.780502 112.042656,207.502411 112.141899,207.264191 
	C112.432388,206.399902 112.623642,205.773849 113.159370,205.114014 
	C114.370529,204.824966 115.237206,204.569687 116.297020,204.248352 
	C116.490158,204.182281 116.860809,204.011154 116.860809,204.011154 
	C119.974426,204.143311 123.088043,204.275467 126.627686,204.603897 
	C126.979828,205.306122 126.905945,205.812073 126.808571,206.574982 
z"/>
<path fill="#D2CEC4" opacity="1.000000" stroke="none" 
	d="
M133.159714,213.866440 
	C126.100945,213.965942 119.219864,213.860535 112.163162,213.160950 
	C111.987534,212.566803 112.059204,212.098358 112.059204,212.098358 
	C118.785469,212.055847 125.511726,212.013367 132.724792,211.906281 
	C133.253540,212.448288 133.295471,213.054901 133.159714,213.866440 
z"/>
<path fill="#EBC5AD" opacity="1.000000" stroke="none" 
	d="
M132.088242,110.789932 
	C128.188126,113.555168 124.258621,115.994835 119.683098,118.728462 
	C114.415611,119.004303 109.794151,118.986176 105.172684,118.968056 
	C101.430466,116.293755 97.688248,113.619446 93.801926,110.252121 
	C91.787575,104.322502 89.917320,99.085915 88.047066,93.849327 
	C88.751465,93.569962 89.720657,93.483337 90.097527,92.965569 
	C90.648125,92.209129 90.773499,91.143181 91.567993,90.414368 
	C92.245407,90.253349 92.434959,89.887131 92.624512,89.520905 
	C90.295418,79.484703 90.295418,79.484703 98.871048,73.584450 
	C98.526764,77.999985 98.205376,82.121887 97.779114,87.588692 
	C102.094444,82.889740 105.479042,79.204247 109.557404,74.763321 
	C109.748138,78.335953 109.876114,80.733070 110.025742,83.535660 
	C114.316162,79.176041 118.315536,75.112152 122.398460,70.963371 
	C127.811897,75.884293 123.920906,81.298157 124.327957,86.817093 
	C127.829330,84.728653 131.130432,82.759659 134.431534,80.790672 
	C134.948029,80.930824 135.464508,81.070976 135.981003,81.211128 
	C135.437805,84.254570 134.894608,87.298012 134.222397,91.064323 
	C134.644363,91.347290 136.035477,92.280159 137.709152,93.568970 
	C136.314545,98.877571 134.637360,103.830246 132.960190,108.782913 
	C132.659744,109.343399 132.359314,109.903885 132.088242,110.789932 
z"/>
<path fill="#FD5F2F" opacity="1.000000" stroke="none" 
	d="
M136.913940,150.305328 
	C135.635162,151.554062 134.294937,152.424927 132.595154,153.569397 
	C132.235596,153.842987 131.982361,154.041809 131.741821,154.010742 
	C131.501266,153.979675 131.024460,154.068954 130.560699,153.985184 
	C118.057213,153.957260 106.017494,154.013107 93.745926,154.021179 
	C93.514061,153.973389 93.041870,154.008194 93.005806,153.913437 
	C92.969742,153.818680 92.767639,153.835281 92.579330,153.591400 
	C90.990555,152.449753 89.590088,151.551987 88.264175,150.282501 
	C90.002075,142.656570 91.165047,135.505356 84.244469,130.017853 
	C83.643211,128.846527 83.041946,127.675201 82.006676,125.658371 
	C88.356712,123.990257 94.425995,122.395897 100.966576,121.251572 
	C104.935715,125.523048 108.433548,129.344498 111.981216,133.220367 
	C116.573746,128.662277 120.286949,124.976921 124.000145,121.291573 
	C125.203995,121.003128 126.585114,120.183075 127.581932,120.515488 
	C132.733902,122.233475 137.787506,124.246407 143.160965,126.263680 
	C142.345428,127.573975 141.746185,128.536789 141.009644,129.821609 
	C134.055710,135.625443 135.103867,142.705307 136.913940,150.305328 
M120.367767,134.617920 
	C117.230164,137.080307 116.627052,140.538345 119.007057,143.225739 
	C120.462601,144.869278 124.284912,146.025024 126.145599,145.247925 
	C127.995689,144.475281 129.934097,140.872482 129.693817,138.753387 
	C129.151688,133.972229 125.346260,133.162888 120.367767,134.617920 
z"/>
<path fill="#FA5E2E" opacity="1.000000" stroke="none" 
	d="
M97.933121,204.483917 
	C97.408928,203.502258 97.112793,202.254486 96.325508,201.579834 
	C87.819916,194.290939 87.247826,184.874039 88.971817,173.950806 
	C89.259590,169.438782 89.533875,165.782257 89.957077,161.823761 
	C90.727089,160.333771 91.348160,159.145737 92.431290,157.927582 
	C96.743759,157.897476 100.594177,157.897476 105.322350,157.897476 
	C99.732590,165.311829 100.349930,172.662811 100.880615,180.077194 
	C103.600792,180.352188 105.741570,180.568604 107.927681,181.197006 
	C107.995087,185.881958 108.354225,190.189743 107.917847,194.415375 
	C107.638123,197.124023 106.185349,199.711533 105.102158,202.798706 
	C105.201637,202.839828 106.626854,203.429016 107.613159,204.119812 
	C104.518707,204.281281 101.863182,204.341125 98.885437,204.366760 
	C98.353195,204.382980 98.143158,204.433441 97.933121,204.483917 
z"/>
<path fill="#E8C2AB" opacity="1.000000" stroke="none" 
	d="
M84.106949,130.353378 
	C91.165047,135.505356 90.002075,142.656570 87.806824,150.332855 
	C84.584908,150.763687 81.894882,150.772415 79.204865,150.781158 
	C78.549263,143.551666 80.222572,136.874420 84.106949,130.353378 
z"/>
<path fill="#E0A98B" opacity="1.000000" stroke="none" 
	d="
M123.648300,121.197220 
	C120.286949,124.976921 116.573746,128.662277 111.981216,133.220367 
	C108.433548,129.344498 104.935715,125.523048 101.293045,121.419205 
	C102.405174,120.632332 103.662140,120.127869 105.045891,119.295731 
	C109.794151,118.986176 114.415611,119.004303 119.440567,118.996155 
	C120.994858,119.680878 122.145660,120.391876 123.648300,121.197220 
z"/>
<path fill="#DBA88B" opacity="1.000000" stroke="none" 
	d="
M88.020004,93.895226 
	C89.917320,99.085915 91.787575,104.322502 93.751305,109.903885 
	C86.642967,110.045929 82.903679,105.649582 80.498199,99.114075 
	C80.234558,97.870049 79.928413,96.842842 80.160446,95.956528 
	C80.618683,94.206177 80.969177,92.066605 82.173935,91.020470 
	C82.804428,90.472984 85.151436,91.902267 87.020836,92.925751 
	C87.545074,93.644142 87.797798,93.842270 88.076637,94.007088 
	C88.076637,94.007088 87.992943,93.941124 88.020004,93.895226 
z"/>
<path fill="#3D4CAF" opacity="1.000000" stroke="none" 
	d="
M79.227997,151.174149 
	C81.894882,150.772415 84.584908,150.763687 87.732269,150.704590 
	C89.590088,151.551987 90.990555,152.449753 92.298325,153.716644 
	C92.126839,155.376434 92.048042,156.667068 91.969238,157.957703 
	C91.348160,159.145737 90.727089,160.333771 89.560280,161.780518 
	C86.332024,161.511734 83.649506,160.984268 80.966988,160.456787 
	C80.395035,157.493576 79.823082,154.530350 79.227997,151.174149 
z"/>
<path fill="#3548B0" opacity="1.000000" stroke="none" 
	d="
M112.041992,211.696320 
	C112.059204,212.098358 111.987534,212.566803 111.917870,212.793060 
	C105.525841,213.191757 99.203476,213.364197 92.543549,213.748535 
	C94.067703,211.426712 95.929428,208.893005 98.111000,206.084656 
	C98.430847,205.810028 98.786240,205.789429 99.111458,206.042984 
	C103.638672,206.698502 107.840660,207.100449 112.042656,207.502411 
	C112.042656,207.502411 111.944504,207.780502 111.970917,207.925568 
	C112.006477,209.145172 112.015633,210.219742 112.041992,211.696320 
z"/>
<path fill="#E8C1A9" opacity="1.000000" stroke="none" 
	d="
M80.844719,160.892899 
	C83.649506,160.984268 86.332024,161.511734 89.411346,162.082458 
	C89.533875,165.782257 89.259590,169.438782 88.922028,173.505676 
	C83.764824,171.259964 80.560272,167.382614 80.844719,160.892899 
z"/>
<path fill="#F2B9A7" opacity="1.000000" stroke="none" 
	d="
M98.786240,205.789429 
	C98.786240,205.789429 98.430847,205.810028 98.257690,205.767395 
	C98.088165,205.444229 98.060074,205.166916 97.966675,204.688370 
	C98.143158,204.433441 98.353195,204.382980 98.866341,204.611053 
	C99.062599,205.198410 98.934860,205.498367 98.786240,205.789429 
z"/>
<path fill="#DDA98C" opacity="1.000000" stroke="none" 
	d="
M133.357544,108.834976 
	C134.637360,103.830246 136.314545,98.877571 137.996948,93.540100 
	C140.028168,92.435867 142.054153,91.716438 144.080139,90.997002 
	C144.460907,93.163879 145.407028,95.408852 145.120453,97.483551 
	C144.108536,104.809647 140.256470,108.454315 133.357544,108.834976 
z"/>
<path fill="#4C2451" opacity="1.000000" stroke="none" 
	d="
M113.641800,39.986061 
	C113.641518,40.079262 113.353531,39.982471 113.353531,39.982471 
	C113.353531,39.982471 113.642082,39.892857 113.641800,39.986061 
z"/>
<path fill="#EBC5AD" opacity="1.000000" stroke="none" 
	d="
M87.983261,93.768173 
	C87.797798,93.842270 87.545074,93.644142 87.164917,93.226883 
	C87.304214,93.203789 87.597046,93.366524 87.983261,93.768173 
z"/>
<path fill="#313136" opacity="1.000000" stroke="none" 
	d="
M92.431290,157.927582 
	C92.048042,156.667068 92.126839,155.376434 92.486633,153.960541 
	C92.767639,153.835281 92.969742,153.818680 93.101715,154.028549 
	C93.233688,154.238419 93.627449,154.333679 93.627449,154.333679 
	C93.627449,154.333679 93.977783,154.068954 93.977783,154.068954 
	C106.017494,154.013107 118.057213,153.957260 130.666794,154.092926 
	C131.236664,154.284424 131.644226,154.331451 131.644226,154.331451 
	C131.644226,154.331451 131.982361,154.041809 131.982361,154.041809 
	C131.982361,154.041809 132.235596,153.842987 132.396240,153.849396 
	C132.833298,154.986420 133.109695,156.117020 133.271683,157.549438 
	C128.564636,157.851227 123.972000,157.851227 118.564171,157.851227 
	C121.607681,164.153503 124.255882,169.637222 127.138184,175.605682 
	C123.883224,176.777115 120.833961,177.874527 117.395294,178.511612 
	C115.571228,171.312897 114.136581,164.574493 112.701927,157.836090 
	C112.014847,157.902374 111.327774,157.968674 110.640694,158.034958 
	C110.430710,160.659332 110.322121,163.296646 109.988998,165.905273 
	C109.354507,170.873840 108.591805,175.826035 107.882339,180.785019 
	C105.741570,180.568604 103.600792,180.352188 100.880615,180.077194 
	C100.349930,172.662811 99.732590,165.311829 105.322350,157.897476 
	C100.594177,157.897476 96.743759,157.897476 92.431290,157.927582 
z"/>
<path fill="#D44422" opacity="1.000000" stroke="none" 
	d="
M107.927681,181.197006 
	C108.591805,175.826035 109.354507,170.873840 109.988998,165.905273 
	C110.322121,163.296646 110.430710,160.659332 110.640694,158.034958 
	C111.327774,157.968674 112.014847,157.902374 112.701927,157.836090 
	C114.136581,164.574493 115.571228,171.312897 117.020699,178.454315 
	C117.011711,184.306931 117.008011,189.756729 116.956352,195.206085 
	C116.926743,198.329590 116.772842,201.481247 121.259735,202.275528 
	C119.977966,202.703354 118.696190,203.131180 117.137619,203.785080 
	C116.860809,204.011154 116.490158,204.182281 115.848953,204.157959 
	C113.113304,204.179047 111.018860,204.224442 108.699860,204.229401 
	C108.475296,204.188934 108.052063,204.018219 108.052063,204.018219 
	C106.626854,203.429016 105.201637,202.839828 105.102158,202.798706 
	C106.185349,199.711533 107.638123,197.124023 107.917847,194.415375 
	C108.354225,190.189743 107.995087,185.881958 107.927681,181.197006 
z"/>
<path fill="#FDFCFD" opacity="1.000000" stroke="none" 
	d="
M107.613152,204.119827 
	C108.052063,204.018219 108.475296,204.188934 108.983047,204.412308 
	C110.598839,204.806396 111.706863,204.977097 112.814896,205.147797 
	C112.623642,205.773849 112.432388,206.399902 112.141899,207.264175 
	C107.840660,207.100449 103.638672,206.698502 99.111458,206.042984 
	C98.934860,205.498367 99.062599,205.198410 99.188553,204.645264 
	C101.863182,204.341125 104.518707,204.281281 107.613152,204.119827 
z"/>
<path fill="#F2B9A7" opacity="1.000000" stroke="none" 
	d="
M113.159370,205.114014 
	C111.706863,204.977097 110.598839,204.806396 109.207611,204.452759 
	C111.018860,204.224442 113.113304,204.179047 115.655807,204.224030 
	C115.237206,204.569687 114.370529,204.824966 113.159370,205.114014 
z"/>
<path fill="#535A68" opacity="1.000000" stroke="none" 
	d="
M92.408447,89.688583 
	C92.434959,89.887131 92.245407,90.253349 91.921883,90.422043 
	C91.922729,90.101746 92.057556,89.978996 92.408447,89.688583 
z"/>
<path fill="#F4E425" opacity="1.000000" stroke="none" 
	d="
M120.730728,134.424194 
	C125.346260,133.162888 129.151688,133.972229 129.693817,138.753387 
	C129.934097,140.872482 127.995689,144.475281 126.145599,145.247925 
	C124.284912,146.025024 120.462601,144.869278 119.007057,143.225739 
	C116.627052,140.538345 117.230164,137.080307 120.730728,134.424194 
z"/>
<path fill="#0F2C35" opacity="1.000000" stroke="none" 
	d="
M131.741821,154.010742 
	C131.982361,154.041809 131.644226,154.331451 131.644226,154.331451 
	C131.644226,154.331451 131.236664,154.284424 131.130554,154.176697 
	C131.024460,154.068954 131.501266,153.979675 131.741821,154.010742 
z"/>
<path fill="#0F2C35" opacity="1.000000" stroke="none" 
	d="
M93.745926,154.021179 
	C93.977783,154.068954 93.627449,154.333679 93.627449,154.333679 
	C93.627449,154.333679 93.233688,154.238419 93.137779,154.123306 
	C93.041870,154.008194 93.514061,153.973389 93.745926,154.021179 
z"/>
</svg>